#!OML:ASF F:\VICON\USERDATA\INSTALL\rory3\rory3.ASF
:FULLY-SPECIFIED
:DEGREES
1623
root -5.9956 18.0523 -2.59652 -177.626 119.936 -182.515
lowerback 4.79298 -2.10357 -1.7141
upperback 0.15197 -2.82524 2.40349
thorax -2.32432 -1.37523 3.62556
lowerneck -19.1214 -12.7521 -13.5331
upperneck 10.0082 -14.9878 8.36083
head 7.79931 -6.99482 2.86461
rclavicle 3.47873e-014 -1.98785e-014
rhumerus -19.213 1.43621 -75.5239
rradius 33.5024
rwrist 17.4445
rhand -28.0564 0.672563
rfingers 7.12502
rthumb -1.44035 -29.3023
lclavicle 3.47873e-014 -1.98785e-014
lhumerus -31.7889 0.517562 81.3971
lradius 41.4865
lwrist -9.52618
lhand -11.2734 26.1182
lfingers 7.12502
lthumb 14.7571 1135.57
rfemur -17.0781 -12.7684 26.7871
rtibia 26.5029
rfoot -21.1048 -16.995
rtoes 20.8531
lfemur -2.89778 6.19496 -11.5771
ltibia 35.7976
lfoot -13.1026 12.8082
ltoes -11.0145
1624
root -6.02633 18.0539 -2.61739 -177.63 119.233 -182.541
lowerback 4.54831 -2.12574 -1.89654
upperback 0.129243 -2.8645 2.37457
thorax -2.20032 -1.39546 3.68978
lowerneck -18.9306 -12.8363 -13.6914
upperneck 9.90096 -15.0881 8.40156
head 7.75882 -7.05064 2.89408
rclavicle -1.22899e-013 2.50469e-014
rhumerus -19.2878 1.62101 -75.4169
rradius 33.4213
rwrist 17.4541
rhand -27.9003 0.875195
rfingers 7.12502
rthumb -1.28959 -29.1007
lclavicle -1.22899e-013 2.50469e-014
lhumerus -30.8244 2.7912 80.9877
lradius 38.7185
lwrist -11.5232
lhand -11.6755 25.2008
lfingers 7.12502
lthumb 14.3697 1134.68
rfemur -17.2143 -12.9969 26.7963
rtibia 26.4503
rfoot -21.3295 -17.394
rtoes 20.9415
lfemur -2.52309 6.70753 -11.6479
ltibia 35.7904
lfoot -12.5615 12.9682
ltoes -11.4165
1625
root -6.05811 18.0541 -2.63842 -178.028 118.501 -182.953
lowerback 4.42981 -2.19821 -1.86217
upperback 0.0807409 -2.95829 2.37795
thorax -2.17826 -1.44259 3.67503
lowerneck -18.742 -12.8632 -13.8952
upperneck 9.83214 -15.1061 8.46671
head 7.72877 -7.06706 2.95069
rclavicle -4.09993e-015 -3.97569e-016
rhumerus -19.2807 1.91593 -75.389
rradius 33.1761
rwrist 17.4651
rhand -27.9003 1.02028
rfingers 7.12502
rthumb -1.28964 -28.9556
lclavicle -4.09993e-015 -3.97569e-016
lhumerus -31.0046 2.61396 81.1347
lradius 38.3506
lwrist -10.5806
lhand -12.2692 26.1058
lfingers 7.12502
lthumb 13.7976 1135.63
rfemur -17.3 -13.2057 26.9945
rtibia 26.4386
rfoot -21.5406 -17.7418
rtoes 21.1437
lfemur -2.09584 7.24679 -11.4686
ltibia 35.7478
lfoot -12.068 12.911
ltoes -11.6145
1626
root -6.08995 18.054 -2.66038 -178.507 117.737 -183.363
lowerback 4.40728 -2.30193 -1.83542
upperback 0.046541 -3.09503 2.37512
thorax -2.19201 -1.51059 3.66456
lowerneck -18.5345 -12.8323 -14.0495
upperneck 9.706 -15.0593 8.54172
head 7.66687 -7.05086 3.01666
rclavicle 1.26477e-014 -1.37161e-014
rhumerus -19.2157 2.32283 -75.3376
rradius 32.9382
rwrist 17.5065
rhand -27.9056 0.936238
rfingers 7.12502
rthumb -1.29472 -29.0396
lclavicle 1.26477e-014 -1.37161e-014
lhumerus -31.0035 3.16863 81.0157
lradius 37.3963
lwrist -10.5951
lhand -12.3408 26.087
lfingers 7.12502
lthumb 13.7286 1135.61
rfemur -17.3192 -13.397 27.1478
rtibia 26.4829
rfoot -21.8521 -18.1149
rtoes 21.4719
lfemur -1.54542 7.544 -11.3192
ltibia 35.6734
lfoot -11.8226 12.8238
ltoes -11.3559
1627
root -6.12053 18.0568 -2.68587 -177.982 116.996 -182.829
lowerback 4.21957 -2.35224 -2.27148
upperback -0.0473412 -3.18662 2.26366
thorax -2.15934 -1.55273 3.79265
lowerneck -18.1681 -12.8279 -14.209
upperneck 9.50142 -15.0715 8.64333
head 7.56271 -7.06586 3.09118
rclavicle 9.16149e-014 -1.27222e-014
rhumerus -19.3842 2.43909 -75.2513
rradius 32.9682
rwrist 17.7944
rhand -27.8206 0.551677
rfingers 7.12502
rthumb -1.2126 -29.4246
lclavicle 9.16149e-014 -1.27222e-014
lhumerus -30.9993 4.09 80.697
lradius 36.3139
lwrist -11.2244
lhand -12.0413 24.0163
lfingers 7.12502
lthumb 14.0172 1133.52
rfemur -17.5446 -13.5132 26.8234
rtibia 26.5146
rfoot -22.084 -18.5445
rtoes 21.7225
lfemur -1.21632 7.71789 -11.7506
ltibia 35.5914
lfoot -11.4216 12.8611
ltoes -11.2085
1628
root -6.15105 18.0613 -2.71911 -177.216 116.302 -182.205
lowerback 3.90839 -2.39281 -2.66123
upperback -0.178307 -3.26023 2.11248
thorax -2.10117 -1.58648 3.84706
lowerneck -18.1862 -12.9559 -14.1733
upperneck 9.69358 -15.2363 8.46805
head 7.62869 -7.15656 2.99726
rclavicle 8.83101e-014 -3.00165e-014
rhumerus -19.5892 2.59707 -75.2365
rradius 33.0414
rwrist 17.8515
rhand -27.5648 0.460186
rfingers 7.12502
rthumb -0.965576 -29.5174
lclavicle 8.83101e-014 -3.00165e-014
lhumerus -31.0928 4.83161 80.3206
lradius 35.4604
lwrist -11.7912
lhand -11.8266 22.2086
lfingers 7.12502
lthumb 14.2241 1131.7
rfemur -17.9585 -13.6901 26.4982
rtibia 26.5636
rfoot -22.2097 -18.9488
rtoes 21.4716
lfemur -1.07116 7.85679 -12.2717
ltibia 35.4656
lfoot -10.9381 12.7258
ltoes -10.7305
1629
root -6.18206 18.0655 -2.7528 -177.251 115.596 -182.456
lowerback 3.64989 -2.4607 -2.61288
upperback -0.305065 -3.346 2.05268
thorax -2.08586 -1.62906 3.75264
lowerneck -18.1449 -13.0258 -14.15
upperneck 9.77729 -15.3256 8.32863
head 7.645 -7.21099 2.93437
rclavicle 1.37907e-014 7.15625e-015
rhumerus -19.9451 2.67505 -75.2975
rradius 33.1354
rwrist 18.2589
rhand -27.1772 0.411778
rfingers 7.12502
rthumb -0.591239 -29.5671
lclavicle 1.37907e-014 7.15625e-015
lhumerus -31.2237 5.48729 79.9973
lradius 34.7169
lwrist -12.212
lhand -12.1398 23.6888
lfingers 7.12502
lthumb 13.9223 1133.2
rfemur -18.3521 -14.0342 26.6429
rtibia 26.5784
rfoot -22.2187 -19.3409
rtoes 21.0162
lfemur -0.915489 8.02589 -12.3271
ltibia 35.3101
lfoot -10.2575 12.4814
ltoes -10.8965
1630
root -6.21564 18.0707 -2.78609 -177.631 114.837 -182.943
lowerback 3.59927 -2.51378 -2.528
upperback -0.413105 -3.4122 2.05567
thorax -2.16801 -1.66 3.71204
lowerneck -17.5621 -12.9447 -14.4163
upperneck 9.30163 -15.252 8.60446
head 7.43131 -7.18142 3.11088
rclavicle 2.58296e-014 -6.55989e-015
rhumerus -20.6088 2.01119 -75.3326
rradius 33.4502
rwrist 19.6035
rhand -26.6191 0.417521
rfingers 7.12502
rthumb -0.0522314 -29.5622
lclavicle 2.58296e-014 -6.55989e-015
lhumerus -31.3905 6.04333 79.8706
lradius 34.0142
lwrist -12.2542
lhand -12.618 25.2984
lfingers 7.12502
lthumb 13.4614 1134.84
rfemur -18.5852 -14.533 26.8943
rtibia 26.4349
rfoot -21.8104 -19.9429
rtoes 20.0587
lfemur -0.694791 8.09529 -12.2325
ltibia 35.1689
lfoot -9.44466 12.2696
ltoes -10.5724
1631
root -6.25129 18.0718 -2.81764 -178.566 114.161 -183.953
lowerback 3.6086 -2.53416 -2.28371
upperback -0.463828 -3.42709 2.09537
thorax -2.236 -1.66794 3.61901
lowerneck -17.2508 -12.9358 -14.6104
upperneck 9.07357 -15.2658 8.84692
head 7.34451 -7.18482 3.23328
rclavicle 3.50855e-014 -1.2921e-015
rhumerus -21.0763 1.47861 -75.3895
rradius 33.6652
rwrist 20.3522
rhand -26.1847 0.639948
rfingers 7.12502
rthumb 0.367388 -29.3395
lclavicle 3.50855e-014 -1.2921e-015
lhumerus -31.535 6.49331 79.6906
lradius 33.366
lwrist -11.9509
lhand -12.6618 25.837
lfingers 7.12502
lthumb 13.4192 1135.38
rfemur -18.6788 -14.6716 27.3258
rtibia 26.2092
rfoot -21.6192 -20.6124
rtoes 19.5824
lfemur -0.41094 8.17906 -11.868
ltibia 34.9625
lfoot -8.4878 11.9427
ltoes -9.65939
1632
root -6.28183 18.0663 -2.84092 -180.728 113.681 -186.07
lowerback 3.69085 -2.49999 -1.70171
upperback -0.413033 -3.35098 2.22682
thorax -2.26089 -1.63561 3.42759
lowerneck -17.2004 -13.0007 -14.5919
upperneck 9.07932 -15.3674 8.84886
head 7.34846 -7.23374 3.21699
rclavicle 7.53518e-015 -1.13307e-014
rhumerus -21.348 1.29581 -75.4771
rradius 33.6928
rwrist 20.4313
rhand -26.2156 0.767382
rfingers 7.12502
rthumb 0.337491 -29.2121
lclavicle 7.53518e-015 -1.13307e-014
lhumerus -31.747 6.88188 79.362
lradius 32.8458
lwrist -11.6244
lhand -12.4742 25.8219
lfingers 7.12502
lthumb 13.6 1135.36
rfemur -18.4982 -14.4748 28.1426
rtibia 26.0726
rfoot -21.8685 -21.2003
rtoes 19.6801
lfemur 0.232118 8.20669 -10.9914
ltibia 34.5758
lfoot -7.25485 11.5089
ltoes -10.4937
1633
root -6.31279 18.059 -2.86498 -181.867 113.224 -186.861
lowerback 3.92652 -2.4597 -1.75144
upperback -0.287099 -3.30057 2.25883
thorax -2.26225 -1.61068 3.49427
lowerneck -16.9983 -12.9777 -14.6483
upperneck 8.80862 -15.3448 8.91323
head 7.23448 -7.22595 3.26496
rclavicle 7.69918e-014 1.38652e-014
rhumerus -21.571 1.19956 -75.5648
rradius 33.6991
rwrist 20.2257
rhand -26.4719 1.18775
rfingers 7.12502
rthumb 0.090001 -28.792
lclavicle 7.69918e-014 1.38652e-014
lhumerus -31.9287 7.486 79.0534
lradius 32.3373
lwrist -11.4769
lhand -12.3949 25.64
lfingers 7.12502
lthumb 13.6764 1135.17
rfemur -18.1591 -14.4174 28.3016
rtibia 26.0494
rfoot -22.1 -21.6625
rtoes 19.975
lfemur 1.18112 8.04609 -10.7701
ltibia 33.9836
lfoot -6.15546 11.3805
ltoes -14.7214
